<?xml version="1.0" encoding="utf-8"?>
<!-- Svg Vector Icons : http://www.onlinewebfonts.com/icon -->
<!DOCTYPE svg PUBLIC "-//W3C//DTD SVG 1.1//EN" "http://www.w3.org/Graphics/SVG/1.1/DTD/svg11.dtd">
<svg version="1.1" xmlns="http://www.w3.org/2000/svg" xmlns:xlink="http://www.w3.org/1999/xlink" x="0px" y="0px" viewBox="0 0 256 256" enable-background="new 0 0 256 256" xml:space="preserve">
<metadata> Svg Vector Icons : http://www.onlinewebfonts.com/icon </metadata>
<rect width="100%" height="100%" fill="#202020"/>
<g><g><g><path fill="#f0f0f0" d="M116.7,12.9C97.9,14.5,81.1,21.1,70.1,31c-3.2,3-7.6,8.4-8.6,10.8c-0.5,1-8.9,32.4-18.7,69.7c-15.3,57.7-18.1,67.9-19,68.7c-0.6,0.5-2.4,2-3.9,3.2c-7.9,6.5-11.3,14.3-9.4,21.8c0.4,1.8,1.5,4.4,2.3,5.8c10.7,17.9,52.5,30.9,104,32.4c36.1,1,67.9-2.8,93.3-11.2c24.5-8.2,37.7-20.5,35.7-33.3c-0.9-5.7-4-10.7-9.7-15.4c-1.5-1.2-3.2-2.7-3.9-3.2c-0.9-0.8-3.8-11-19-68.7c-9.8-37.3-18.3-68.6-18.7-69.7c-0.4-1-2-3.3-3.4-5.2C177.1,19.1,149,10.1,116.7,12.9z M142.2,23c13.7,1.6,24.1,5.4,33.6,12.2c3,2.1,8.5,7.7,9.5,9.6c0.8,1.6,38.3,143.1,38,143.7c-0.3,0.8-9.6,5.5-15.6,7.9c-43.6,17.8-116,17.8-159.6,0c-5.9-2.4-15.3-7.2-15.6-7.9c-0.2-0.6,37.2-142.2,38-143.7c1-2,6.5-7.5,9.5-9.6c11.2-8,24.2-12.1,41.2-12.9C129.5,22,134.8,22.1,142.2,23z M235.3,197.1c6.4,13.2-20.9,27.8-63.2,33.9c-16.2,2.4-23.7,2.8-44.2,2.8c-20.4,0-28-0.5-44.2-2.8c-28.2-4-50.2-11.9-59.7-21.3c-4.3-4.2-5.5-8.5-3.4-12.6c1.6-3.3,1.7-3.3,6.4-0.4c23.2,14.6,59.2,22.8,100.9,22.8c31.1,0,57.8-4.2,80.5-12.8c9.1-3.4,24-11.3,24-12.7C232.5,193,234.3,195.1,235.3,197.1z"/><path fill="#f0f0f0" d="M102.5,32.9c-1.3,0.4-3.1,1.5-4.1,2.5c-1.5,1.4-1.9,2.1-1.9,3.5c0,3.9,4.7,6.6,11.3,6.6c6.8,0,11.3-2.8,11.3-6.9c0-1.6-0.3-2.2-1.6-3.5C114.4,32.4,107.6,31.3,102.5,32.9z"/><path fill="#f0f0f0" d="M142.1,32.6c-2.2,0.7-5.1,2.4-5.8,3.4c-1.1,1.6-0.9,4.3,0.4,5.9c3,3.6,11.3,4.8,16.6,2.5c3.2-1.4,4.8-3.3,4.8-5.6c0-2.3-2.8-5-6.2-6C149.4,32.1,144.1,32,142.1,32.6z"/><path fill="#f0f0f0" d="M80.7,56.9c-3.9,2.1-6.4,6.4-6.7,11.5c-0.3,5.1,1.3,8.6,4.8,9.9c4,1.5,9.6-3.2,10.9-9.4c1-4.5-0.3-9.9-2.8-11.5C85.1,56.2,82.4,56,80.7,56.9z"/><path fill="#f0f0f0" d="M170.6,56.6c-0.5,0.2-1.4,0.8-2,1.5c-4.7,5.1-2.3,16.5,4.3,19.7c8.7,4.1,13.1-9.8,5.8-18.2C176,56.6,173.2,55.6,170.6,56.6z"/><path fill="#f0f0f0" d="M142.2,60.9c-10.3,1.9-12.2,15.8-3,20.8c4.9,2.7,10.3,2,14.2-1.9c4.2-4.3,4.4-10.3,0.3-14.9C150.8,61.5,146.7,60.1,142.2,60.9z"/><path fill="#f0f0f0" d="M105.5,62.1c-9.3,4.6-8.4,17.7,1.4,20.7c3,0.9,4.3,0.9,7.2,0c8.4-2.5,11.1-13.4,4.7-19c-2.5-2.2-4.4-2.9-7.9-2.9C108.6,60.9,107.3,61.2,105.5,62.1z"/><path fill="#f0f0f0" d="M74.4,87.1c-5.6,2.7-8.9,12.8-6.3,18.7c3.9,8.6,13.6,4.2,15.6-7c1-5.2-0.8-10.2-4-11.8C77.8,86.1,76.4,86.1,74.4,87.1z"/><path fill="#f0f0f0" d="M176.1,87.2c-3.1,1.9-4.5,7.5-3.2,12.7c2.6,10.3,11.4,13.9,15.2,6.3c1.1-2.3,1.2-2.9,1-6.4c-0.2-4.5-1.3-7.3-4-10.2C182.1,86.3,179,85.5,176.1,87.2z"/><path fill="#f0f0f0" d="M103.1,92.7c-7.9,3.9-9.5,14.3-3.1,20c2.4,2.1,4.7,3,8,3c6.9,0.1,12.3-5.3,12.4-12.4c0-4.7-3-9.2-7.3-11.1C110.3,91.1,106,91.3,103.1,92.7z"/><path fill="#f0f0f0" d="M142.2,92.2c-6.3,2.7-9,9.8-6.2,16.1c2.7,6.3,10.6,9.2,16.8,6c4-2,6.4-5.9,6.4-10.4c0-7.2-5.3-12.6-12.3-12.5C145.1,91.5,143.1,91.8,142.2,92.2z"/><path fill="#f0f0f0" d="M68,119.4c-4.1,1.8-7.3,7.6-7.7,13.7c-0.4,7.9,3.2,12.7,8.6,11.3c2.1-0.5,5.6-4.3,7.1-7.5c1.2-2.6,1.4-3.4,1.4-7.6c0-4.3-0.1-4.9-1.3-6.9C74.1,119,71.3,118,68,119.4z"/><path fill="#f0f0f0" d="M182.5,120c-2.3,1.9-3.2,4.5-3.2,8.7c0,4.3,0.9,7.6,3,10.6c4.3,6.3,9.8,7,12.9,1.6c1.1-1.9,1.3-2.6,1.3-6.4c0-5-0.6-7.2-2.9-10.7C190.4,118.9,185.7,117.4,182.5,120z"/><path fill="#f0f0f0" d="M100.4,125.8c-3.1,1.5-5.4,4.2-6.7,7.5c-0.9,2.2-0.8,7.3,0.2,9.6c1,2.4,3.8,5.4,6.1,6.6c2.7,1.4,8.2,1.4,10.9,0c8-4.3,10-15.3,3.9-21.4c-2.3-2.3-4.8-3.3-8.4-3.6C103.7,124.4,102.9,124.5,100.4,125.8z"/><path fill="#f0f0f0" d="M143.5,125.7c-7.7,4-9.2,14.6-3,21c6.2,6.4,16.5,4.8,20.2-3.2c1.6-3.3,1.6-8,0-11.3C157.5,125.4,149.7,122.4,143.5,125.7z"/></g></g></g>
</svg>
